<?xml version="1.0"?>
 <svg xmlns="http://www.w3.org/2000/svg" xmlns:xlink="http://www.w3.org/1999/xlink"  width="160" height="160">
<rect width="160" height="160" style="fill:#000" />
<circle cx="35" cy="35" r="1.2" fill="#FFF" />
<circle cx="35" cy="45" r="1.2" fill="#FFF" />
<circle cx="35" cy="55" r="1.2" fill="#FFF" />
<circle cx="35" cy="65" r="1.2" fill="#FFF" />
<circle cx="35" cy="75" r="1.2" fill="#FFF" />
<circle cx="35" cy="85" r="1.2" fill="#FFF" />
<circle cx="35" cy="95" r="1.2" fill="#FFF" />
<circle cx="45" cy="35" r="1.2" fill="#FFF" />
<circle cx="45" cy="45" r="1.2" fill="#FFF" />
<circle cx="45" cy="55" r="1.2" fill="#FFF" />
<circle cx="45" cy="65" r="1.2" fill="#FFF" />
<circle cx="45" cy="75" r="1.2" fill="#FFF" />
<circle cx="45" cy="85" r="1.2" fill="#FFF" />
<circle cx="45" cy="95" r="1.2" fill="#FFF" />
<circle cx="55" cy="35" r="1.2" fill="#FFF" />
<circle cx="55" cy="45" r="1.2" fill="#FFF" />
<circle cx="55" cy="55" r="1.2" fill="#FFF" />
<circle cx="55" cy="65" r="1.2" fill="#FFF" />
<circle cx="55" cy="75" r="1.2" fill="#FFF" />
<circle cx="55" cy="85" r="1.2" fill="#FFF" />
<circle cx="55" cy="95" r="1.2" fill="#FFF" />
<circle cx="65" cy="35" r="1.2" fill="#FFF" />
<circle cx="65" cy="45" r="1.2" fill="#FFF" />
<circle cx="65" cy="55" r="1.2" fill="#FFF" />
<circle cx="65" cy="65" r="1.2" fill="#FFF" />
<circle cx="65" cy="75" r="1.2" fill="#FFF" />
<circle cx="65" cy="85" r="1.2" fill="#FFF" />
<circle cx="65" cy="95" r="1.2" fill="#FFF" />
<circle cx="75" cy="35" r="1.2" fill="#FFF" />
<circle cx="75" cy="45" r="1.2" fill="#FFF" />
<circle cx="75" cy="55" r="1.2" fill="#FFF" />
<circle cx="75" cy="65" r="1.2" fill="#FFF" />
<circle cx="75" cy="75" r="1.2" fill="#FFF" />
<circle cx="75" cy="85" r="1.2" fill="#FFF" />
<circle cx="75" cy="95" r="1.2" fill="#FFF" />
<circle cx="85" cy="35" r="1.2" fill="#FFF" />
<circle cx="85" cy="45" r="1.2" fill="#FFF" />
<circle cx="85" cy="55" r="1.2" fill="#FFF" />
<circle cx="85" cy="65" r="1.2" fill="#FFF" />
<circle cx="85" cy="75" r="1.2" fill="#FFF" />
<circle cx="85" cy="85" r="1.2" fill="#FFF" />
<circle cx="85" cy="95" r="1.2" fill="#FFF" />
<circle cx="95" cy="35" r="1.2" fill="#FFF" />
<circle cx="95" cy="45" r="1.2" fill="#FFF" />
<circle cx="95" cy="55" r="1.2" fill="#FFF" />
<circle cx="95" cy="65" r="1.2" fill="#FFF" />
<circle cx="95" cy="75" r="1.2" fill="#FFF" />
<circle cx="95" cy="85" r="1.2" fill="#FFF" />
<circle cx="95" cy="95" r="1.2" fill="#FFF" />
<line x1="35" y1="35" x2="35" y2="35" style="stroke:#FFF;stroke-width:1.2" /><line x1="35" y1="45" x2="35" y2="45" style="stroke:#FFF;stroke-width:1.2" /><line x1="35" y1="55" x2="35" y2="55" style="stroke:#FFF;stroke-width:1.2" /><line x1="35" y1="65" x2="35" y2="65" style="stroke:#FFF;stroke-width:1.2" /><line x1="35" y1="75" x2="35" y2="75" style="stroke:#FFF;stroke-width:1.2" /><line x1="35" y1="85" x2="35" y2="85" style="stroke:#FFF;stroke-width:1.2" /><line x1="35" y1="95" x2="35" y2="95" style="stroke:#FFF;stroke-width:1.2" /><line x1="45" y1="35" x2="45" y2="35" style="stroke:#FFF;stroke-width:1.2" /><line x1="45" y1="45" x2="45" y2="45" style="stroke:#FFF;stroke-width:1.2" /><line x1="45" y1="55" x2="45" y2="55" style="stroke:#FFF;stroke-width:1.2" /><line x1="45" y1="65" x2="45" y2="65" style="stroke:#FFF;stroke-width:1.2" /><line x1="45" y1="75" x2="45" y2="75" style="stroke:#FFF;stroke-width:1.2" /><line x1="45" y1="85" x2="45" y2="85" style="stroke:#FFF;stroke-width:1.2" /><line x1="45" y1="95" x2="45" y2="95" style="stroke:#FFF;stroke-width:1.2" /><line x1="55" y1="35" x2="55" y2="35" style="stroke:#FFF;stroke-width:1.2" /><line x1="55" y1="45" x2="55" y2="45" style="stroke:#FFF;stroke-width:1.2" /><line x1="55" y1="55" x2="55" y2="55" style="stroke:#FFF;stroke-width:1.2" /><line x1="55" y1="65" x2="55" y2="65" style="stroke:#FFF;stroke-width:1.2" /><line x1="55" y1="75" x2="55" y2="75" style="stroke:#FFF;stroke-width:1.2" /><line x1="55" y1="85" x2="55" y2="85" style="stroke:#FFF;stroke-width:1.2" /><line x1="55" y1="95" x2="55" y2="95" style="stroke:#FFF;stroke-width:1.2" /><line x1="65" y1="35" x2="65" y2="35" style="stroke:#FFF;stroke-width:1.2" /><line x1="65" y1="45" x2="65" y2="45" style="stroke:#FFF;stroke-width:1.2" /><line x1="65" y1="55" x2="65" y2="55" style="stroke:#FFF;stroke-width:1.2" /><line x1="65" y1="65" x2="65" y2="65" style="stroke:#FFF;stroke-width:1.2" /><line x1="65" y1="75" x2="65" y2="75" style="stroke:#FFF;stroke-width:1.2" /><line x1="65" y1="85" x2="65" y2="85" style="stroke:#FFF;stroke-width:1.2" /><line x1="65" y1="95" x2="65" y2="95" style="stroke:#FFF;stroke-width:1.2" /><line x1="75" y1="35" x2="75" y2="35" style="stroke:#FFF;stroke-width:1.2" /><line x1="75" y1="45" x2="75" y2="45" style="stroke:#FFF;stroke-width:1.2" /><line x1="75" y1="55" x2="75" y2="55" style="stroke:#FFF;stroke-width:1.2" /><line x1="75" y1="65" x2="75" y2="65" style="stroke:#FFF;stroke-width:1.2" /><line x1="75" y1="75" x2="75" y2="75" style="stroke:#FFF;stroke-width:1.2" /><line x1="75" y1="85" x2="75" y2="85" style="stroke:#FFF;stroke-width:1.2" /><line x1="75" y1="95" x2="75" y2="95" style="stroke:#FFF;stroke-width:1.2" /><line x1="85" y1="35" x2="85" y2="35" style="stroke:#FFF;stroke-width:1.2" /><line x1="85" y1="45" x2="85" y2="45" style="stroke:#FFF;stroke-width:1.2" /><line x1="85" y1="55" x2="85" y2="55" style="stroke:#FFF;stroke-width:1.2" /><line x1="85" y1="65" x2="85" y2="65" style="stroke:#FFF;stroke-width:1.2" /><line x1="85" y1="75" x2="85" y2="75" style="stroke:#FFF;stroke-width:1.2" /><line x1="85" y1="85" x2="85" y2="85" style="stroke:#FFF;stroke-width:1.2" /><line x1="85" y1="95" x2="85" y2="95" style="stroke:#FFF;stroke-width:1.2" /><line x1="95" y1="35" x2="95" y2="35" style="stroke:#FFF;stroke-width:1.2" /><line x1="95" y1="45" x2="95" y2="45" style="stroke:#FFF;stroke-width:1.2" /><line x1="95" y1="55" x2="95" y2="55" style="stroke:#FFF;stroke-width:1.2" /><line x1="95" y1="65" x2="95" y2="65" style="stroke:#FFF;stroke-width:1.2" /><line x1="95" y1="75" x2="95" y2="75" style="stroke:#FFF;stroke-width:1.2" /><line x1="95" y1="85" x2="95" y2="85" style="stroke:#FFF;stroke-width:1.2" /><line x1="95" y1="95" x2="95" y2="95" style="stroke:#FFF;stroke-width:1.2" /></svg>
