<?xml version="1.0"?>
 <svg xmlns="http://www.w3.org/2000/svg" xmlns:xlink="http://www.w3.org/1999/xlink"  width="1000" height="1000">
<rect width="1000" height="1000" style="fill:rgb(0,0,255)" />
<rect x="0" y="0" width="287" height="80" style="fill:rgb(108,108,108)" />
<rect x="0" y="80" width="287" height="91" style="fill:rgb(105,105,105)" />
<rect x="0" y="171" width="287" height="143" style="fill:rgb(12,12,12)" />
<rect x="0" y="314" width="287" height="64" style="fill:rgb(231,231,231)" />
<rect x="0" y="378" width="11" height="73" style="fill:rgb(148,148,148)" />
<rect x="11" y="378" width="13" height="73" style="fill:rgb(12,12,12)" />
<rect x="24" y="378" width="263" height="43" style="fill:rgb(254,254,254)" />
<rect x="24" y="421" width="263" height="30" style="fill:rgb(155,155,155)" />
<rect x="0" y="451" width="84" height="1" style="fill:rgb(82,82,82)" />
<rect x="0" y="452" width="84" height="4" style="fill:rgb(144,144,144)" />
<rect x="84" y="451" width="127" height="5" style="fill:rgb(0,0,0)" />
<rect x="211" y="451" width="76" height="5" style="fill:rgb(142,142,142)" />
<rect x="0" y="456" width="43" height="11" style="fill:rgb(229,229,229)" />
<rect x="43" y="456" width="244" height="11" style="fill:rgb(202,202,202)" />
<rect x="0" y="467" width="73" height="5" style="fill:rgb(154,154,154)" />
<rect x="73" y="467" width="214" height="5" style="fill:rgb(71,71,71)" />
<rect x="0" y="472" width="108" height="10" style="fill:rgb(210,210,210)" />
<rect x="108" y="472" width="105" height="10" style="fill:rgb(132,132,132)" />
<rect x="0" y="482" width="213" height="3" style="fill:rgb(38,38,38)" />
<rect x="0" y="485" width="213" height="5" style="fill:rgb(66,66,66)" />
<rect x="213" y="472" width="24" height="15" style="fill:rgb(54,54,54)" />
<rect x="213" y="487" width="24" height="3" style="fill:rgb(4,4,4)" />
<rect x="237" y="472" width="6" height="16" style="fill:rgb(40,40,40)" />
<rect x="237" y="488" width="6" height="2" style="fill:rgb(178,178,178)" />
<rect x="243" y="472" width="1" height="18" style="fill:rgb(10,10,10)" />
<rect x="244" y="472" width="6" height="18" style="fill:rgb(40,40,40)" />
<rect x="250" y="472" width="12" height="9" style="fill:rgb(126,126,126)" />
<rect x="250" y="481" width="12" height="9" style="fill:rgb(23,23,23)" />
<rect x="262" y="472" width="19" height="2" style="fill:rgb(92,92,92)" />
<rect x="281" y="472" width="6" height="2" style="fill:rgb(15,15,15)" />
<rect x="262" y="474" width="16" height="16" style="fill:rgb(181,181,181)" />
<rect x="278" y="474" width="9" height="16" style="fill:rgb(30,30,30)" />
<rect x="287" y="0" width="8" height="235" style="fill:rgb(9,9,9)" />
<rect x="287" y="235" width="8" height="209" style="fill:rgb(202,202,202)" />
<rect x="295" y="0" width="7" height="444" style="fill:rgb(110,110,110)" />
<rect x="302" y="0" width="11" height="444" style="fill:rgb(48,48,48)" />
<rect x="313" y="0" width="2" height="411" style="fill:rgb(245,245,245)" />
<rect x="313" y="411" width="2" height="33" style="fill:rgb(0,0,0)" />
<rect x="315" y="0" width="3" height="19" style="fill:rgb(229,229,229)" />
<rect x="315" y="19" width="3" height="425" style="fill:rgb(239,239,239)" />
<rect x="318" y="0" width="91" height="179" style="fill:rgb(27,27,27)" />
<rect x="409" y="0" width="121" height="179" style="fill:rgb(15,15,15)" />
<rect x="318" y="179" width="212" height="48" style="fill:rgb(98,98,98)" />
<rect x="318" y="227" width="212" height="217" style="fill:rgb(157,157,157)" />
<rect x="530" y="0" width="365" height="12" style="fill:rgb(181,181,181)" />
<rect x="530" y="12" width="365" height="5" style="fill:rgb(244,244,244)" />
<rect x="530" y="17" width="365" height="267" style="fill:rgb(163,163,163)" />
<rect x="530" y="284" width="365" height="160" style="fill:rgb(37,37,37)" />
<rect x="287" y="444" width="151" height="12" style="fill:rgb(112,112,112)" />
<rect x="438" y="444" width="89" height="12" style="fill:rgb(243,243,243)" />
<rect x="527" y="444" width="259" height="12" style="fill:rgb(187,187,187)" />
<rect x="786" y="444" width="44" height="12" style="fill:rgb(133,133,133)" />
<rect x="287" y="456" width="129" height="6" style="fill:rgb(22,22,22)" />
<rect x="416" y="456" width="414" height="6" style="fill:rgb(110,110,110)" />
<rect x="287" y="462" width="543" height="9" style="fill:rgb(156,156,156)" />
<rect x="287" y="471" width="543" height="19" style="fill:rgb(204,204,204)" />
<rect x="830" y="444" width="39" height="30" style="fill:rgb(145,145,145)" />
<rect x="869" y="444" width="22" height="30" style="fill:rgb(220,220,220)" />
<rect x="891" y="444" width="4" height="21" style="fill:rgb(248,248,248)" />
<rect x="891" y="465" width="4" height="9" style="fill:rgb(20,20,20)" />
<rect x="830" y="474" width="38" height="16" style="fill:rgb(96,96,96)" />
<rect x="868" y="474" width="16" height="16" style="fill:rgb(155,155,155)" />
<rect x="884" y="474" width="3" height="16" style="fill:rgb(172,172,172)" />
<rect x="887" y="474" width="8" height="16" style="fill:rgb(23,23,23)" />
<rect x="0" y="490" width="10" height="177" style="fill:rgb(32,32,32)" />
<rect x="0" y="667" width="10" height="141" style="fill:rgb(123,123,123)" />
<rect x="10" y="490" width="412" height="41" style="fill:rgb(227,227,227)" />
<rect x="10" y="531" width="412" height="277" style="fill:rgb(34,34,34)" />
<rect x="0" y="808" width="117" height="70" style="fill:rgb(197,197,197)" />
<rect x="117" y="808" width="257" height="70" style="fill:rgb(200,200,200)" />
<rect x="374" y="808" width="48" height="3" style="fill:rgb(63,63,63)" />
<rect x="374" y="811" width="48" height="67" style="fill:rgb(226,226,226)" />
<rect x="0" y="878" width="80" height="18" style="fill:rgb(107,107,107)" />
<rect x="80" y="878" width="52" height="18" style="fill:rgb(238,238,238)" />
<rect x="0" y="896" width="132" height="94" style="fill:rgb(243,243,243)" />
<rect x="0" y="990" width="132" height="10" style="fill:rgb(50,50,50)" />
<rect x="132" y="878" width="27" height="122" style="fill:rgb(234,234,234)" />
<rect x="159" y="878" width="118" height="122" style="fill:rgb(118,118,118)" />
<rect x="277" y="878" width="97" height="122" style="fill:rgb(48,48,48)" />
<rect x="374" y="878" width="48" height="122" style="fill:rgb(98,98,98)" />
<rect x="422" y="490" width="5" height="496" style="fill:rgb(85,85,85)" />
<rect x="427" y="490" width="13" height="496" style="fill:rgb(180,180,180)" />
<rect x="440" y="490" width="38" height="213" style="fill:rgb(68,68,68)" />
<rect x="440" y="703" width="38" height="283" style="fill:rgb(160,160,160)" />
<rect x="422" y="986" width="56" height="3" style="fill:rgb(230,230,230)" />
<rect x="422" y="989" width="56" height="3" style="fill:rgb(166,166,166)" />
<rect x="422" y="992" width="38" height="8" style="fill:rgb(117,117,117)" />
<rect x="460" y="992" width="18" height="8" style="fill:rgb(233,233,233)" />
<rect x="478" y="490" width="119" height="313" style="fill:rgb(235,235,235)" />
<rect x="478" y="803" width="119" height="50" style="fill:rgb(230,230,230)" />
<rect x="597" y="490" width="2" height="87" style="fill:rgb(134,134,134)" />
<rect x="597" y="577" width="2" height="276" style="fill:rgb(96,96,96)" />
<rect x="478" y="853" width="121" height="90" style="fill:rgb(128,128,128)" />
<rect x="478" y="943" width="121" height="54" style="fill:rgb(79,79,79)" />
<rect x="478" y="997" width="43" height="3" style="fill:rgb(26,26,26)" />
<rect x="521" y="997" width="78" height="3" style="fill:rgb(246,246,246)" />
<rect x="599" y="490" width="267" height="211" style="fill:rgb(62,62,62)" />
<rect x="599" y="701" width="267" height="85" style="fill:rgb(88,88,88)" />
<rect x="866" y="490" width="10" height="296" style="fill:rgb(41,41,41)" />
<rect x="876" y="490" width="17" height="296" style="fill:rgb(101,101,101)" />
<rect x="599" y="786" width="9" height="67" style="fill:rgb(2,2,2)" />
<rect x="608" y="786" width="285" height="67" style="fill:rgb(23,23,23)" />
<rect x="599" y="853" width="133" height="24" style="fill:rgb(139,139,139)" />
<rect x="732" y="853" width="161" height="24" style="fill:rgb(187,187,187)" />
<rect x="893" y="490" width="0" height="198" style="fill:rgb(204,204,204)" />
<rect x="893" y="688" width="0" height="189" style="fill:rgb(18,18,18)" />
<rect x="893" y="490" width="2" height="40" style="fill:rgb(223,223,223)" />
<rect x="893" y="530" width="2" height="347" style="fill:rgb(71,71,71)" />
<rect x="599" y="877" width="26" height="91" style="fill:rgb(202,202,202)" />
<rect x="599" y="968" width="26" height="2" style="fill:rgb(163,163,163)" />
<rect x="625" y="877" width="68" height="92" style="fill:rgb(97,97,97)" />
<rect x="625" y="969" width="68" height="1" style="fill:rgb(226,226,226)" />
<rect x="693" y="877" width="124" height="36" style="fill:rgb(148,148,148)" />
<rect x="817" y="877" width="78" height="36" style="fill:rgb(2,2,2)" />
<rect x="693" y="913" width="202" height="8" style="fill:rgb(42,42,42)" />
<rect x="693" y="921" width="202" height="49" style="fill:rgb(182,182,182)" />
<rect x="599" y="970" width="76" height="30" style="fill:rgb(220,220,220)" />
<rect x="675" y="970" width="20" height="30" style="fill:rgb(208,208,208)" />
<rect x="695" y="970" width="106" height="30" style="fill:rgb(184,184,184)" />
<rect x="801" y="970" width="46" height="30" style="fill:rgb(29,29,29)" />
<rect x="847" y="970" width="0" height="13" style="fill:rgb(144,144,144)" />
<rect x="847" y="983" width="0" height="17" style="fill:rgb(247,247,247)" />
<rect x="847" y="970" width="48" height="28" style="fill:rgb(197,197,197)" />
<rect x="847" y="998" width="48" height="2" style="fill:rgb(143,143,143)" />
<rect x="895" y="0" width="0" height="889" style="fill:rgb(216,216,216)" />
<rect x="895" y="0" width="1" height="889" style="fill:rgb(183,183,183)" />
<rect x="895" y="889" width="1" height="0" style="fill:rgb(116,116,116)" />
<rect x="895" y="889" width="1" height="88" style="fill:rgb(144,144,144)" />
<rect x="895" y="977" width="1" height="11" style="fill:rgb(238,238,238)" />
<rect x="895" y="988" width="1" height="12" style="fill:rgb(77,77,77)" />
<rect x="896" y="975" width="0" height="9" style="fill:rgb(169,169,169)" />
<rect x="896" y="984" width="0" height="16" style="fill:rgb(50,50,50)" />
<rect x="896" y="0" width="0" height="1000" style="fill:rgb(38,38,38)" />
<rect x="896" y="0" width="1" height="1000" style="fill:rgb(172,172,172)" />
<rect x="897" y="0" width="1" height="594" style="fill:rgb(197,197,197)" />
<rect x="897" y="594" width="1" height="159" style="fill:rgb(183,183,183)" />
<rect x="897" y="753" width="0" height="247" style="fill:rgb(120,120,120)" />
<rect x="897" y="753" width="1" height="247" style="fill:rgb(102,102,102)" />
<rect x="898" y="0" width="7" height="4" style="fill:rgb(67,67,67)" />
<rect x="898" y="4" width="7" height="27" style="fill:rgb(6,6,6)" />
<rect x="898" y="31" width="7" height="82" style="fill:rgb(161,161,161)" />
<rect x="898" y="113" width="7" height="25" style="fill:rgb(170,170,170)" />
<rect x="898" y="138" width="7" height="131" style="fill:rgb(201,201,201)" />
<rect x="898" y="269" width="7" height="417" style="fill:rgb(66,66,66)" />
<rect x="898" y="686" width="0" height="314" style="fill:rgb(153,153,153)" />
<rect x="898" y="686" width="7" height="314" style="fill:rgb(38,38,38)" />
<rect x="905" y="309" width="0" height="49" style="fill:rgb(83,83,83)" />
<rect x="905" y="358" width="0" height="200" style="fill:rgb(215,215,215)" />
<rect x="905" y="0" width="1" height="89" style="fill:rgb(199,199,199)" />
<rect x="905" y="89" width="1" height="93" style="fill:rgb(55,55,55)" />
<rect x="905" y="182" width="1" height="94" style="fill:rgb(243,243,243)" />
<rect x="905" y="276" width="1" height="282" style="fill:rgb(168,168,168)" />
<rect x="905" y="558" width="0" height="67" style="fill:rgb(234,234,234)" />
<rect x="905" y="625" width="0" height="68" style="fill:rgb(53,53,53)" />
<rect x="905" y="558" width="1" height="96" style="fill:rgb(25,25,25)" />
<rect x="905" y="654" width="1" height="39" style="fill:rgb(57,57,57)" />
<rect x="905" y="693" width="0" height="70" style="fill:rgb(141,141,141)" />
<rect x="905" y="763" width="0" height="237" style="fill:rgb(25,25,25)" />
<rect x="905" y="693" width="0" height="307" style="fill:rgb(222,222,222)" />
<rect x="905" y="693" width="1" height="307" style="fill:rgb(207,207,207)" />
<rect x="906" y="0" width="31" height="259" style="fill:rgb(130,130,130)" />
<rect x="937" y="0" width="12" height="259" style="fill:rgb(243,243,243)" />
<rect x="906" y="259" width="40" height="132" style="fill:rgb(16,16,16)" />
<rect x="946" y="259" width="3" height="132" style="fill:rgb(193,193,193)" />
<rect x="906" y="391" width="34" height="39" style="fill:rgb(172,172,172)" />
<rect x="940" y="391" width="9" height="39" style="fill:rgb(157,157,157)" />
<rect x="906" y="430" width="38" height="36" style="fill:rgb(139,139,139)" />
<rect x="944" y="430" width="5" height="36" style="fill:rgb(80,80,80)" />
<rect x="906" y="466" width="9" height="34" style="fill:rgb(175,175,175)" />
<rect x="906" y="500" width="9" height="12" style="fill:rgb(164,164,164)" />
<rect x="915" y="466" width="28" height="46" style="fill:rgb(117,117,117)" />
<rect x="943" y="466" width="6" height="46" style="fill:rgb(61,61,61)" />
<rect x="906" y="512" width="43" height="38" style="fill:rgb(242,242,242)" />
<rect x="906" y="550" width="43" height="27" style="fill:rgb(4,4,4)" />
<rect x="906" y="577" width="43" height="9" style="fill:rgb(193,193,193)" />
<rect x="906" y="586" width="43" height="10" style="fill:rgb(77,77,77)" />
<rect x="906" y="596" width="36" height="3" style="fill:rgb(151,151,151)" />
<rect x="906" y="599" width="36" height="18" style="fill:rgb(208,208,208)" />
<rect x="906" y="617" width="36" height="30" style="fill:rgb(127,127,127)" />
<rect x="906" y="647" width="36" height="28" style="fill:rgb(24,24,24)" />
<rect x="906" y="675" width="0" height="221" style="fill:rgb(3,3,3)" />
<rect x="906" y="675" width="36" height="221" style="fill:rgb(82,82,82)" />
<rect x="906" y="896" width="36" height="28" style="fill:rgb(232,232,232)" />
<rect x="906" y="924" width="36" height="76" style="fill:rgb(20,20,20)" />
<rect x="942" y="596" width="2" height="85" style="fill:rgb(153,153,153)" />
<rect x="944" y="596" width="5" height="85" style="fill:rgb(86,86,86)" />
<rect x="942" y="681" width="4" height="121" style="fill:rgb(89,89,89)" />
<rect x="946" y="681" width="3" height="121" style="fill:rgb(23,23,23)" />
<rect x="942" y="802" width="7" height="162" style="fill:rgb(96,96,96)" />
<rect x="942" y="964" width="7" height="11" style="fill:rgb(221,221,221)" />
<rect x="942" y="975" width="4" height="25" style="fill:rgb(15,15,15)" />
<rect x="946" y="975" width="3" height="25" style="fill:rgb(153,153,153)" />
<rect x="949" y="0" width="3" height="181" style="fill:rgb(228,228,228)" />
<rect x="952" y="0" width="18" height="181" style="fill:rgb(72,72,72)" />
<rect x="970" y="0" width="0" height="181" style="fill:rgb(169,169,169)" />
<rect x="970" y="0" width="21" height="181" style="fill:rgb(61,61,61)" />
<rect x="949" y="181" width="5" height="270" style="fill:rgb(27,27,27)" />
<rect x="954" y="181" width="37" height="270" style="fill:rgb(212,212,212)" />
<rect x="949" y="451" width="2" height="175" style="fill:rgb(214,214,214)" />
<rect x="951" y="451" width="40" height="175" style="fill:rgb(68,68,68)" />
<rect x="949" y="626" width="7" height="54" style="fill:rgb(169,169,169)" />
<rect x="956" y="626" width="27" height="54" style="fill:rgb(32,32,32)" />
<rect x="983" y="626" width="8" height="34" style="fill:rgb(227,227,227)" />
<rect x="983" y="660" width="8" height="20" style="fill:rgb(154,154,154)" />
<rect x="949" y="680" width="22" height="320" style="fill:rgb(91,91,91)" />
<rect x="971" y="680" width="4" height="320" style="fill:rgb(95,95,95)" />
<rect x="975" y="680" width="16" height="112" style="fill:rgb(180,180,180)" />
<rect x="975" y="792" width="16" height="208" style="fill:rgb(211,211,211)" />
<rect x="991" y="0" width="7" height="0" style="fill:rgb(14,14,14)" />
<rect x="991" y="0" width="7" height="5" style="fill:rgb(123,123,123)" />
<rect x="991" y="5" width="7" height="1" style="fill:rgb(149,149,149)" />
<rect x="991" y="6" width="7" height="6" style="fill:rgb(219,219,219)" />
<rect x="998" y="0" width="0" height="12" style="fill:rgb(107,107,107)" />
<rect x="998" y="0" width="2" height="12" style="fill:rgb(179,179,179)" />
<rect x="991" y="12" width="2" height="202" style="fill:rgb(83,83,83)" />
<rect x="993" y="12" width="7" height="202" style="fill:rgb(71,71,71)" />
<rect x="991" y="214" width="6" height="345" style="fill:rgb(22,22,22)" />
<rect x="997" y="214" width="3" height="345" style="fill:rgb(242,242,242)" />
<rect x="991" y="559" width="9" height="180" style="fill:rgb(134,134,134)" />
<rect x="991" y="739" width="9" height="71" style="fill:rgb(55,55,55)" />
<rect x="991" y="810" width="1" height="190" style="fill:rgb(202,202,202)" />
<rect x="992" y="810" width="8" height="190" style="fill:rgb(231,231,231)" />
</svg>
